HIERARCHY
ROOT Hip
{
	OFFSET	0.0000	0.0000	0.0000
	CHANNELS 6 Xposition Yposition Zposition Xrotation Yrotation Zrotation
	JOINT LowerSpine
	{
		OFFSET	0.0000	8.3453	-5.1292
		CHANNELS 3 Xrotation Yrotation Zrotation
		JOINT MiddleSpine
		{
			OFFSET	10.8569	0.0000	0.0000
			CHANNELS 3 Xrotation Yrotation Zrotation
			JOINT Chest
			{
				OFFSET	15.2984	0.0000	0.0000
				CHANNELS 3 Xrotation Yrotation Zrotation
				JOINT Neck
				{
					OFFSET	25.6618	-0.5986	0.0000
					CHANNELS 3 Xrotation Yrotation Zrotation
					JOINT Head
					{
						OFFSET	8.8829	0.0000	0.0000
						CHANNELS 3 Xrotation Yrotation Zrotation
						End Site
						{
							OFFSET	19.7399	0.0000	0.0000
						}
					}
				}
				JOINT RClavicle
				{
					OFFSET	23.6878	0.0000	3.1584
					CHANNELS 3 Xrotation Yrotation Zrotation
					JOINT RShoulder
					{
						OFFSET	-15.5945	-3.9480	0.9870
						CHANNELS 3 Xrotation Yrotation Zrotation
						JOINT RForearm
						{
							OFFSET	-31.3370	0.0000	0.1974
							CHANNELS 3 Xrotation Yrotation Zrotation
							JOINT RHand
							{
								OFFSET	-26.4021	0.0000	0.0000
								CHANNELS 3 Xrotation Yrotation Zrotation
								End Site
								{
									OFFSET	-15.7919	-0.9870	0.0000
								}
							}
						}
					}
				}
				JOINT LClavicle
				{
					OFFSET	23.6878	0.0000	-3.1584
					CHANNELS 3 Xrotation Yrotation Zrotation
					JOINT LShoulder
					{
						OFFSET	-15.5945	-3.9480	-0.9870
						CHANNELS 3 Xrotation Yrotation Zrotation
						JOINT LForearm
						{
							OFFSET	-31.3370	0.0000	-0.1974
							CHANNELS 3 Xrotation Yrotation Zrotation
							JOINT LHand
							{
								OFFSET	-26.4021	0.0000	0.0000
								CHANNELS 3 Xrotation Yrotation Zrotation
								End Site
								{
									OFFSET	-15.7919	-0.9870	0.0000
								}
							}
						}
					}
				}
			}
		}
	}
	JOINT RThigh
	{
		OFFSET	-8.8829	0.4481	0.0000
		CHANNELS 3 Xrotation Yrotation Zrotation
		JOINT RShin
		{
			OFFSET	43.1316	0.0000	-0.4935
			CHANNELS 3 Xrotation Yrotation Zrotation
			JOINT RFoot
			{
				OFFSET	0.0000	-44.7256	-0.4047
				CHANNELS 3 Xrotation Yrotation Zrotation
				JOINT RToe
				{
					OFFSET	0.0000	-3.9332	12.1953
					CHANNELS 3 Xrotation Yrotation Zrotation
					End Site
					{
						OFFSET	6.7725	0.0000	0.0000
					}
				}
			}
		}
	}
	JOINT LThigh
	{
		OFFSET	8.8829	0.4481	0.0000
		CHANNELS 3 Xrotation Yrotation Zrotation
		JOINT LShin
		{
			OFFSET	43.1316	0.0000	0.4935
			CHANNELS 3 Xrotation Yrotation Zrotation
			JOINT LFoot
			{
				OFFSET	0.0000	-44.7256	0.4047
				CHANNELS 3 Xrotation Yrotation Zrotation
				JOINT LToe
				{
					OFFSET	0.0000	-3.9332	-12.1953
					CHANNELS 3 Xrotation Yrotation Zrotation
					End Site
					{
						OFFSET	6.7725	0.0000	0.0000
					}
				}
			}
		}
	}
}
MOTION
Frames:	13
Frame Time: 0.0169491000
	0.0000	93.1363	0.0000	0.000000	0.000000	0.000000	-89.999990	-90.000000	0.000000	0.000000	0.000000	0.000000	0.000000	0.000000	0.000000	0.000000	0.000000	0.000000	0.000000	0.000000	0.000000	89.999990	0.000003	-89.999990	0.129889	-2.857029	4.156837	0.255388	4.965908	-5.884634	0.000000	0.000000	0.000000	-89.999990	-0.000003	-89.999990	-0.129889	2.857029	4.156894	-0.255388	-4.965908	-5.884634	0.000000	0.000000	0.000000	-89.999990	90.000000	0.000000	89.999990	-0.000003	89.999990	0.000000	0.000000	0.000000	180.000000	90.000000	0.000000	-89.999990	90.000000	0.000000	-90.000000	-0.000003	89.999990	0.000000	0.000000	0.000000	180.000000	-90.000000	0.000000
	4.6809	92.9629	-2.9208	-1.317534	1.510236	2.003358	-89.999990	-90.000000	0.000000	0.298660	-0.013729	-0.141110	0.994991	-0.048236	-0.469623	0.000000	0.000000	0.000000	0.000000	0.000000	0.000000	89.995960	-0.287105	-86.142720	-3.283435	-5.504364	3.699953	1.452792	16.192410	-6.105536	0.000000	0.000000	0.000000	-89.995130	0.198784	-87.329010	3.299639	-6.044633	4.307814	-0.238637	-4.803963	-5.883207	0.000000	0.000000	0.000000	83.199090	84.967830	-172.030400	89.945260	6.102226	89.996670	-6.280775	-0.341624	-0.142410	180.055700	90.000000	0.000000	166.336000	89.616500	105.260000	-89.950260	-5.546570	89.996730	4.396146	0.146071	-0.055264	180.170600	-90.000000	0.000000
	3.7673	92.8454	-3.0366	-0.782105	1.475402	1.525128	-89.999990	-90.000000	0.000000	0.279437	0.011768	-0.233730	0.931404	0.034986	-0.779060	0.000000	0.000000	0.000000	0.000000	0.000000	0.000000	89.995250	-0.234710	-86.846500	-9.363448	-6.250920	5.841075	1.600263	17.507270	-6.148286	0.000000	0.000000	0.000000	-89.995410	0.154768	-87.920240	4.955307	-4.123424	5.220308	-0.408422	-6.441451	-5.899844	0.000000	0.000000	0.000000	87.274160	85.615120	-177.598600	89.925040	8.346942	89.996920	-7.128092	-0.334622	-0.141874	179.913300	90.000000	0.000000	-139.295300	89.348900	49.592130	-89.941540	-6.517438	89.996660	4.753242	0.661777	-0.266929	180.773200	-90.000000	0.000000
	2.9650	92.7595	-3.1288	-0.354631	1.251551	1.114819	-89.999990	-90.000000	0.000000	0.269723	0.038269	-0.317558	0.899746	0.121801	-1.059138	0.000000	0.000000	0.000000	0.000000	0.000000	0.000000	89.995160	-0.186816	-87.489720	-14.453050	-7.327463	7.814267	1.766259	18.964680	-6.200235	0.000000	0.000000	0.000000	-89.995890	0.123562	-88.339420	5.536598	-2.433093	5.678568	-0.589632	-8.177438	-5.922902	0.000000	0.000000	0.000000	94.425740	86.289010	174.049500	89.911000	9.898661	89.997560	-7.624097	-0.559601	-0.250832	179.764900	90.000000	0.000000	-125.717500	88.724830	34.737310	-89.931970	-7.580591	89.996750	5.177773	0.986423	-0.408224	180.927900	-90.000000	0.000000
	2.5259	92.7004	-3.2047	-0.129974	1.068690	0.935848	-89.999990	-90.000000	0.000000	0.270503	0.066377	-0.392184	0.902989	0.214084	-1.308792	0.000000	0.000000	0.000000	0.000000	0.000000	0.000000	89.995540	-0.144170	-88.062580	-17.197070	-8.358124	9.172685	1.899709	20.118140	-6.244875	0.000000	0.000000	0.000000	-89.996190	0.108524	-88.541500	5.534547	-1.485551	5.826324	-0.722672	-9.442531	-5.943279	0.000000	0.000000	0.000000	100.122600	86.631710	167.651500	89.903700	10.699650	89.998050	-7.977499	-0.739623	-0.339873	179.740200	90.000000	0.000000	-124.411600	88.307980	32.478290	-89.922810	-8.595656	89.996990	5.655708	1.065185	-0.450474	180.809200	-90.000000	0.000000
	2.3807	92.6479	-3.2315	-0.130227	1.082242	0.933453	-89.999990	-90.000000	0.000000	0.275587	0.095800	-0.462706	0.919796	0.310805	-1.545737	0.000000	0.000000	0.000000	0.000000	0.000000	0.000000	89.996260	-0.105150	-88.586770	-18.332990	-9.285863	10.094200	2.009365	21.053340	-6.283432	0.000000	0.000000	0.000000	-89.996320	0.103311	-88.611560	5.714485	-1.196339	5.909235	-0.809110	-10.259570	-5.958068	0.000000	0.000000	0.000000	101.318500	86.684850	166.175000	89.898930	11.223300	89.998420	-8.478295	-0.741539	-0.341302	179.857800	90.000000	0.000000	-125.642200	88.191790	33.232490	-89.915780	-9.372581	89.997290	6.189098	1.067996	-0.458374	180.609600	-90.000000	0.000000
	2.2950	92.6025	-3.2149	-0.253202	1.266255	0.940116	-89.999990	-90.000000	0.000000	0.277949	0.123117	-0.527371	0.926479	0.400878	-1.764197	0.000000	0.000000	0.000000	0.000000	0.000000	0.000000	89.997140	-0.072331	-89.027700	-18.721600	-10.507220	11.023050	2.201327	22.662240	-6.354907	0.000000	0.000000	0.000000	-89.996320	0.103506	-88.608980	6.202091	-1.198670	5.876803	-0.878165	-10.909300	-5.970753	0.000000	0.000000	0.000000	101.085900	86.729770	166.444500	89.896600	11.478180	89.998620	-8.872845	-0.821562	-0.384538	179.962500	90.000000	0.000000	-126.043600	88.113650	33.430210	-89.910840	-9.917489	89.997560	6.556438	0.943789	-0.407333	180.497300	-90.000000	0.000000
	2.1734	92.5682	-3.2310	-0.307435	1.507037	0.909991	-89.999990	-90.000000	0.000000	0.272506	0.144798	-0.584192	0.908185	0.472842	-1.955384	0.000000	0.000000	0.000000	0.000000	0.000000	0.000000	89.997930	-0.048695	-89.345310	-18.301080	-12.364850	12.124150	2.602630	25.904700	-6.520010	0.000000	0.000000	0.000000	-89.996250	0.106117	-88.573860	6.793593	-0.849205	5.852579	-1.009989	-12.141580	-5.997093	0.000000	0.000000	0.000000	101.213500	86.846190	166.397000	89.896710	11.466180	89.998600	-8.933429	-1.078827	-0.516985	179.973600	90.000000	0.000000	-125.761400	87.983300	32.887550	-89.906880	-10.352410	89.997810	6.580214	0.782237	-0.336794	180.580000	-90.000000	0.000000
	2.0583	92.5349	-3.2816	-0.270756	1.722095	0.910307	-89.999990	-90.000000	0.000000	0.258338	0.158672	-0.633297	0.864559	0.519340	-2.117017	0.000000	0.000000	0.000000	0.000000	0.000000	0.000000	89.998400	-0.036344	-89.511310	-17.068420	-14.764430	13.443300	3.234462	30.664090	-6.819663	0.000000	0.000000	0.000000	-89.996370	0.101335	-88.638130	7.379355	0.282822	6.200694	-1.287334	-14.695960	-6.061471	0.000000	0.000000	0.000000	101.204300	86.930800	166.366000	89.896830	11.454410	89.998580	-8.956176	-1.386884	-0.671254	179.960200	90.000000	0.000000	-126.293000	87.886320	33.117280	-89.904080	-10.660680	89.998000	6.530755	0.611268	-0.262309	180.632900	-90.000000	0.000000
	1.9422	92.4930	-3.3114	-0.257704	1.937274	0.921100	-89.999990	-90.000000	0.000000	0.239972	0.164698	-0.677269	0.809275	0.539511	-2.258858	0.000000	0.000000	0.000000	0.000000	0.000000	0.000000	89.998360	-0.037295	-89.498530	-15.308490	-17.361110	15.398420	3.998113	35.845030	-7.238851	0.000000	0.000000	0.000000	-89.996560	0.093603	-88.742010	7.931202	2.070229	7.168672	-1.746552	-18.792950	-6.193859	0.000000	0.000000	0.000000	101.141300	87.016780	166.375300	89.895910	11.553920	89.998670	-9.192996	-1.771978	-0.867346	179.973100	90.000000	0.000000	-126.641200	87.783890	33.223110	-89.901210	-10.974380	89.998220	6.681265	0.187613	-0.068490	180.504700	-90.000000	0.000000
	1.7784	92.4533	-3.3210	-0.284712	2.113212	0.847632	-89.999990	-90.000000	0.000000	0.225090	0.164486	-0.721028	0.763264	0.537961	-2.401608	0.000000	0.000000	0.000000	0.000000	0.000000	0.000000	89.997940	-0.048520	-89.347700	-13.374740	-19.706400	18.064250	4.768529	40.462330	-7.715184	0.000000	0.000000	0.000000	-89.996900	0.081232	-88.908240	8.512214	4.603503	8.895761	-2.446467	-24.662780	-6.453310	0.000000	0.000000	0.000000	101.480800	87.220710	165.975400	89.894040	11.758060	89.998830	-9.423738	-2.201494	-1.093057	179.992700	90.000000	0.000000	-125.384700	87.585110	31.700910	-89.897250	-11.407480	89.998540	6.890737	-0.254845	0.139069	180.437700	-90.000000	0.000000
	1.5968	92.4286	-3.3445	-0.299065	2.159213	0.740227	-89.999990	-90.000000	0.000000	0.219739	0.160095	-0.771539	0.745069	0.521492	-2.570210	0.000000	0.000000	0.000000	0.000000	0.000000	0.000000	89.997220	-0.069840	-89.061130	-11.996740	-21.404720	20.698140	5.431078	43.981720	-8.160633	0.000000	0.000000	0.000000	-89.997320	0.067289	-89.095570	9.078710	7.954204	11.429190	-3.350963	-31.494730	-6.879806	0.000000	0.000000	0.000000	101.994500	87.450720	165.319900	89.891440	12.041920	89.999080	-9.486004	-2.439013	-1.223076	179.999600	90.000000	0.000000	-124.006300	87.361680	30.022710	-89.892720	-11.902450	89.998950	6.950000	-0.407692	0.213848	180.592600	-90.000000	0.000000
	1.4742	92.4198	-3.3894	-0.309125	2.067997	0.765001	-89.999990	-90.000000	0.000000	0.225786	0.153326	-0.835720	0.763490	0.496632	-2.785725	0.000000	0.000000	0.000000	0.000000	0.000000	0.000000	89.996410	-0.098763	-88.672510	-11.155940	-22.334930	23.159950	5.890598	46.199330	-8.486137	0.000000	0.000000	0.000000	-89.997690	0.056248	-89.243920	9.278798	11.383980	14.481550	-4.279052	-37.597420	-7.406851	0.000000	0.000000	0.000000	101.757800	87.488330	165.411100	89.889370	12.267210	89.999290	-9.537584	-2.365865	-1.183531	180.000000	90.000000	0.000000	-124.549800	87.281580	30.396170	-89.890370	-12.158680	89.999180	6.859216	-0.463477	0.240252	180.804700	-90.000000	0.000000
